<svg width="515" height="343" viewBox="0 0 515 343" fill="none" xmlns="http://www.w3.org/2000/svg">
<g id="undraw_building_websites_i78t 1" opacity="0.9">
<path id="Vector" d="M378.799 256.574H77.395C74.824 256.571 72.3592 255.669 70.5412 254.065C68.7232 252.461 67.7006 250.286 67.6977 248.018V88.2277C67.6998 86.5658 68.449 84.9726 69.7808 83.7974C71.1126 82.6223 72.9184 81.9613 74.802 81.9594H381.269C383.185 81.9613 385.022 82.6337 386.377 83.8292C387.732 85.0246 388.494 86.6454 388.496 88.336V248.018C388.493 250.286 387.471 252.461 385.653 254.065C383.835 255.669 381.37 256.571 378.799 256.574Z" fill="#F2F2F2"/>
<path id="Vector_2" d="M86.7985 248.018H369.396C371.89 248.018 374.281 247.144 376.045 245.588C377.808 244.032 378.799 241.921 378.799 239.721V104.098C378.799 101.898 377.808 99.7874 376.045 98.2315C374.281 96.6756 371.89 95.8015 369.396 95.8015H86.7985C84.3046 95.8015 81.9128 96.6756 80.1493 98.2315C78.3858 99.7874 77.3951 101.898 77.3951 104.098V239.721C77.3951 241.921 78.3858 244.032 80.1493 245.588C81.9128 247.144 84.3046 248.018 86.7985 248.018Z" fill="white"/>
<path id="Vector_3" d="M388.361 87.7383H67.5616V83.3823C67.5654 81.1064 68.5921 78.9247 70.4167 77.3159C72.2413 75.7071 74.7147 74.8025 77.2943 74.8006H378.629C381.208 74.8025 383.682 75.707 385.506 77.3159C387.331 78.9247 388.358 81.1064 388.361 83.3823V87.7383Z" fill="#165079"/>
<path id="Vector_4" d="M85.2492 83.5035C86.6395 83.5035 87.7666 82.509 87.7666 81.2823C87.7666 80.0556 86.6395 79.0612 85.2492 79.0612C83.8588 79.0612 82.7317 80.0556 82.7317 81.2823C82.7317 82.509 83.8588 83.5035 85.2492 83.5035Z" fill="white"/>
<path id="Vector_5" d="M94.8048 83.5035C96.1951 83.5035 97.3222 82.509 97.3222 81.2823C97.3222 80.0556 96.1951 79.0612 94.8048 79.0612C93.4144 79.0612 92.2873 80.0556 92.2873 81.2823C92.2873 82.509 93.4144 83.5035 94.8048 83.5035Z" fill="white"/>
<path id="Vector_6" d="M104.36 83.5035C105.751 83.5035 106.878 82.509 106.878 81.2823C106.878 80.0556 105.751 79.0612 104.36 79.0612C102.97 79.0612 101.843 80.0556 101.843 81.2823C101.843 82.509 102.97 83.5035 104.36 83.5035Z" fill="white"/>
<path id="Vector_7" d="M236.915 218.606H211.643C210.163 218.604 208.744 218.085 207.697 217.161C206.65 216.238 206.061 214.985 206.06 213.679V191.382C206.061 190.076 206.65 188.824 207.697 187.901C208.744 186.977 210.163 186.458 211.643 186.456H236.915C238.395 186.458 239.814 186.977 240.861 187.901C241.908 188.824 242.497 190.076 242.498 191.382V213.679C242.497 214.985 241.908 216.238 240.861 217.161C239.814 218.085 238.395 218.604 236.915 218.606ZM211.643 187.493C210.474 187.494 209.354 187.904 208.528 188.634C207.701 189.363 207.236 190.351 207.235 191.382V213.679C207.236 214.711 207.701 215.699 208.528 216.428C209.354 217.157 210.474 217.567 211.643 217.568H236.915C238.084 217.567 239.204 217.157 240.03 216.428C240.857 215.699 241.321 214.711 241.323 213.679V191.382C241.321 190.351 240.857 189.363 240.03 188.634C239.204 187.904 238.084 187.494 236.915 187.493H211.643Z" fill="#CCCCCC"/>
<path id="Vector_8" d="M231.919 212.383H216.639C216.171 212.383 215.723 212.219 215.392 211.927C215.062 211.635 214.876 211.24 214.875 210.827V194.234C214.876 193.822 215.062 193.426 215.392 193.135C215.723 192.843 216.171 192.679 216.639 192.679H227.711C228.113 192.679 228.502 192.8 228.815 193.022L233.024 196.005C233.23 196.151 233.396 196.335 233.51 196.545C233.624 196.755 233.683 196.985 233.682 197.218V210.827C233.682 211.24 233.496 211.635 233.165 211.927C232.835 212.219 232.387 212.383 231.919 212.383ZM216.639 193.716C216.483 193.716 216.333 193.771 216.223 193.868C216.113 193.965 216.051 194.097 216.051 194.234V210.827C216.051 210.965 216.113 211.097 216.223 211.194C216.333 211.291 216.483 211.346 216.639 211.346H231.919C232.075 211.346 232.224 211.291 232.335 211.194C232.445 211.097 232.507 210.965 232.507 210.827V197.218C232.507 197.14 232.488 197.064 232.45 196.994C232.412 196.924 232.356 196.862 232.287 196.814L228.079 193.83C227.974 193.756 227.845 193.716 227.711 193.716H216.639Z" fill="#CCCCCC"/>
<path id="Vector_9" d="M228.981 199.938H219.577C219.421 199.938 219.272 199.883 219.162 199.786C219.051 199.689 218.989 199.557 218.989 199.42C218.989 199.282 219.051 199.15 219.162 199.053C219.272 198.956 219.421 198.901 219.577 198.901H228.981C229.137 198.901 229.286 198.956 229.396 199.053C229.506 199.15 229.568 199.282 229.568 199.42C229.568 199.557 229.506 199.689 229.396 199.786C229.286 199.883 229.137 199.938 228.981 199.938Z" fill="#CCCCCC"/>
<path id="Vector_10" d="M228.981 203.049H219.577C219.421 203.049 219.272 202.995 219.162 202.897C219.051 202.8 218.989 202.668 218.989 202.531C218.989 202.393 219.051 202.261 219.162 202.164C219.272 202.067 219.421 202.012 219.577 202.012H228.981C229.137 202.012 229.286 202.067 229.396 202.164C229.506 202.261 229.568 202.393 229.568 202.531C229.568 202.668 229.506 202.8 229.396 202.897C229.286 202.995 229.137 203.049 228.981 203.049Z" fill="#CCCCCC"/>
<path id="Vector_11" d="M228.981 206.161H219.577C219.421 206.161 219.272 206.106 219.162 206.009C219.051 205.911 218.989 205.78 218.989 205.642C218.989 205.505 219.051 205.373 219.162 205.275C219.272 205.178 219.421 205.124 219.577 205.124H228.981C229.137 205.124 229.286 205.178 229.396 205.275C229.506 205.373 229.568 205.505 229.568 205.642C229.568 205.78 229.506 205.911 229.396 206.009C229.286 206.106 229.137 206.161 228.981 206.161Z" fill="#CCCCCC"/>
<path id="Vector_12" d="M296.862 218.606H271.59C270.11 218.604 268.691 218.085 267.644 217.161C266.597 216.238 266.009 214.985 266.007 213.679V191.382C266.009 190.076 266.597 188.824 267.644 187.901C268.691 186.977 270.11 186.458 271.59 186.456H296.862C298.342 186.458 299.761 186.977 300.808 187.901C301.855 188.824 302.444 190.076 302.445 191.382V213.679C302.444 214.985 301.855 216.238 300.808 217.161C299.761 218.085 298.342 218.604 296.862 218.606ZM271.59 187.493C270.422 187.494 269.301 187.904 268.475 188.634C267.648 189.363 267.184 190.351 267.182 191.382V213.679C267.184 214.711 267.648 215.699 268.475 216.428C269.301 217.157 270.422 217.567 271.59 217.568H296.862C298.031 217.567 299.151 217.157 299.977 216.428C300.804 215.699 301.269 214.711 301.27 213.679V191.382C301.269 190.351 300.804 189.363 299.977 188.634C299.151 187.904 298.031 187.494 296.862 187.493H271.59Z" fill="#CCCCCC"/>
<path id="Vector_13" d="M292.454 208.235H275.998C275.531 208.234 275.082 208.07 274.752 207.779C274.421 207.487 274.235 207.092 274.235 206.679V198.383C274.235 197.97 274.421 197.575 274.752 197.283C275.082 196.991 275.531 196.827 275.998 196.827H292.454C292.922 196.827 293.37 196.991 293.7 197.283C294.031 197.575 294.217 197.97 294.217 198.383V206.679C294.217 207.092 294.031 207.487 293.7 207.779C293.37 208.07 292.922 208.234 292.454 208.235ZM275.998 197.864C275.842 197.864 275.693 197.919 275.583 198.016C275.472 198.113 275.41 198.245 275.41 198.383V206.679C275.41 206.817 275.472 206.948 275.583 207.046C275.693 207.143 275.842 207.198 275.998 207.198H292.454C292.61 207.198 292.759 207.143 292.87 207.046C292.98 206.948 293.042 206.817 293.042 206.679V198.383C293.042 198.245 292.98 198.113 292.87 198.016C292.759 197.919 292.61 197.864 292.454 197.864H275.998Z" fill="#CCCCCC"/>
<path id="Vector_14" d="M284.226 203.899C283.896 203.899 283.572 203.818 283.292 203.664L274.511 198.822C274.379 198.749 274.285 198.633 274.251 198.499C274.216 198.365 274.243 198.225 274.325 198.108C274.408 197.992 274.539 197.909 274.691 197.878C274.843 197.847 275.002 197.87 275.134 197.943L283.915 202.785C284.009 202.836 284.116 202.863 284.226 202.863C284.336 202.863 284.444 202.836 284.538 202.785L293.318 197.943C293.45 197.87 293.61 197.847 293.761 197.878C293.913 197.909 294.044 197.992 294.127 198.108C294.21 198.225 294.236 198.365 294.202 198.499C294.167 198.633 294.073 198.749 293.941 198.822L285.161 203.664C284.88 203.818 284.556 203.899 284.226 203.899Z" fill="#CCCCCC"/>
<path id="Vector_15" d="M176.968 218.606H151.696C150.216 218.604 148.796 218.085 147.75 217.161C146.703 216.238 146.114 214.985 146.113 213.679V191.382C146.114 190.076 146.703 188.824 147.75 187.901C148.796 186.977 150.216 186.458 151.696 186.456H176.968C178.448 186.458 179.867 186.977 180.914 187.901C181.961 188.824 182.549 190.076 182.551 191.382V213.679C182.549 214.985 181.961 216.238 180.914 217.161C179.867 218.085 178.448 218.604 176.968 218.606ZM151.696 187.493C150.527 187.494 149.407 187.904 148.58 188.634C147.754 189.363 147.289 190.351 147.288 191.382V213.679C147.289 214.711 147.754 215.699 148.58 216.428C149.407 217.157 150.527 217.567 151.696 217.568H176.968C178.136 217.567 179.257 217.157 180.083 216.428C180.909 215.699 181.374 214.711 181.376 213.679V191.382C181.374 190.351 180.909 189.363 180.083 188.634C179.257 187.904 178.136 187.494 176.968 187.493H151.696Z" fill="#CCCCCC"/>
<path id="Vector_16" d="M172.56 208.235H156.104C155.636 208.234 155.188 208.07 154.858 207.779C154.527 207.487 154.341 207.092 154.341 206.679V198.383C154.341 197.97 154.527 197.575 154.858 197.283C155.188 196.991 155.636 196.827 156.104 196.827H172.56C173.027 196.827 173.475 196.991 173.806 197.283C174.137 197.575 174.322 197.97 174.323 198.383V206.679C174.322 207.092 174.137 207.487 173.806 207.779C173.475 208.07 173.027 208.234 172.56 208.235ZM156.104 197.864C155.948 197.864 155.799 197.919 155.688 198.016C155.578 198.113 155.516 198.245 155.516 198.383V206.679C155.516 206.817 155.578 206.948 155.688 207.046C155.799 207.143 155.948 207.198 156.104 207.198H172.56C172.716 207.198 172.865 207.143 172.975 207.046C173.085 206.948 173.147 206.817 173.148 206.679V198.383C173.147 198.245 173.085 198.113 172.975 198.016C172.865 197.919 172.716 197.864 172.56 197.864H156.104Z" fill="#CCCCCC"/>
<path id="Vector_17" d="M169.952 208.235H158.124C157.918 208.235 157.715 208.187 157.536 208.096C157.358 208.005 157.209 207.874 157.106 207.716C157.003 207.559 156.949 207.38 156.949 207.198C156.949 207.016 157.003 206.837 157.106 206.679L160.669 201.234C160.772 201.077 160.92 200.946 161.099 200.855C161.278 200.764 161.481 200.716 161.687 200.716C161.893 200.716 162.096 200.764 162.275 200.855C162.453 200.946 162.602 201.077 162.705 201.234L165.006 204.751L166.339 202.714C166.442 202.556 166.59 202.425 166.769 202.334C166.948 202.243 167.151 202.195 167.357 202.195C167.563 202.195 167.766 202.243 167.945 202.334C168.123 202.425 168.272 202.556 168.375 202.714L170.97 206.679C171.073 206.837 171.127 207.016 171.127 207.198C171.127 207.38 171.073 207.559 170.97 207.716C170.866 207.874 170.718 208.005 170.539 208.096C170.361 208.187 170.158 208.235 169.951 208.235H169.952ZM169.952 207.198L167.357 203.232L165.515 206.047C165.463 206.126 165.389 206.192 165.3 206.237C165.21 206.283 165.109 206.306 165.006 206.306C164.903 206.306 164.801 206.283 164.712 206.237C164.623 206.192 164.548 206.126 164.497 206.047L161.687 201.753L158.124 207.198H169.952Z" fill="#CCCCCC"/>
<path id="Vector_18" d="M170.797 200.975C171.446 200.975 171.972 200.511 171.972 199.938C171.972 199.365 171.446 198.901 170.797 198.901C170.147 198.901 169.621 199.365 169.621 199.938C169.621 200.511 170.147 200.975 170.797 200.975Z" fill="#CCCCCC"/>
<path id="Vector_19" d="M391.087 160.215H212.421C209.85 160.212 207.385 159.31 205.567 157.706C203.749 156.102 202.726 153.927 202.723 151.659V117.954C202.726 115.685 203.749 113.51 205.567 111.907C207.385 110.303 209.85 109.4 212.421 109.398H391.087C393.658 109.4 396.122 110.303 397.94 111.907C399.758 113.511 400.781 115.685 400.784 117.954V151.659C400.781 153.927 399.758 156.102 397.94 157.706C396.122 159.31 393.658 160.212 391.087 160.215Z" fill="white"/>
<path id="Vector_20" d="M391.087 160.474H212.42C209.772 160.471 207.232 159.542 205.359 157.889C203.486 156.237 202.432 153.996 202.429 151.659V117.954C202.432 115.617 203.486 113.376 205.359 111.723C207.232 110.071 209.772 109.141 212.42 109.139H391.087C393.735 109.141 396.275 110.071 398.148 111.723C400.021 113.376 401.075 115.617 401.078 117.954V151.659C401.075 153.996 400.021 156.237 398.148 157.889C396.275 159.542 393.735 160.471 391.087 160.474ZM212.42 110.176C210.083 110.178 207.842 110.998 206.19 112.456C204.537 113.915 203.607 115.892 203.605 117.954V151.659C203.607 153.721 204.537 155.698 206.19 157.156C207.842 158.614 210.083 159.435 212.42 159.437H391.087C393.424 159.435 395.665 158.614 397.317 157.156C398.97 155.698 399.9 153.721 399.902 151.659V117.954C399.9 115.892 398.97 113.915 397.317 112.456C395.665 110.998 393.424 110.178 391.087 110.176H212.42Z" fill="#3F3D56"/>
<path id="Vector_21" d="M369.341 151.918H234.166C231.595 151.916 229.13 151.013 227.312 149.409C225.494 147.805 224.472 145.631 224.469 143.362V125.732C224.472 123.463 225.494 121.289 227.312 119.685C229.13 118.081 231.595 117.178 234.166 117.176H369.341C371.912 117.178 374.377 118.081 376.195 119.685C378.013 121.289 379.035 123.463 379.038 125.732V143.362C379.035 145.631 378.013 147.805 376.195 149.409C374.377 151.013 371.912 151.916 369.341 151.918Z" fill="#F2F2F2"/>
<path id="Vector_22" d="M263.255 142.416C269.66 142.416 274.852 137.834 274.852 132.184C274.852 126.533 269.66 121.952 263.255 121.952C256.85 121.952 251.658 126.533 251.658 132.184C251.658 137.834 256.85 142.416 263.255 142.416Z" fill="#FF6584"/>
<path id="Vector_23" d="M360.941 150.885L344.571 138.773L328.485 126.869C328.06 126.555 327.523 126.383 326.969 126.384C326.415 126.385 325.879 126.558 325.456 126.874L309.421 138.832L305.505 141.753L299.599 137.384L281.652 124.103C281.228 123.789 280.691 123.617 280.137 123.618C279.583 123.619 279.047 123.793 278.624 124.108L260.735 137.45L242.564 151.001C242.472 151.069 242.406 151.161 242.376 151.264C242.345 151.367 242.351 151.476 242.392 151.576C242.434 151.675 242.509 151.762 242.608 151.822C242.707 151.883 242.824 151.916 242.945 151.915L280.198 151.852L291.99 151.832L291.875 151.918L327.025 151.858L360.564 151.801C360.685 151.801 360.802 151.768 360.901 151.707C361 151.646 361.075 151.56 361.116 151.46C361.157 151.36 361.162 151.251 361.131 151.148C361.099 151.046 361.033 150.954 360.941 150.885Z" fill="#3F3D56"/>
<g id="girl">
<path id="Vector_24" d="M296.78 20.6939C301.197 28.988 291.837 31.3373 281.114 35.7829C270.391 40.2284 262.367 45.0868 257.95 36.7926C253.532 28.4985 249.948 12.0362 265.117 5.74719C280.809 -0.758462 292.362 12.3998 296.78 20.6939Z" fill="#2F2E41"/>
<path id="Vector_25" d="M274.903 37.0051C282.875 37.0051 289.338 31.3031 289.338 24.2693C289.338 17.2354 282.875 11.5334 274.903 11.5334C266.93 11.5334 260.468 17.2354 260.468 24.2693C260.468 31.3031 266.93 37.0051 274.903 37.0051Z" fill="#FFB8B8"/>
<path id="Vector_26" d="M259.206 29.3967L264.373 27.2544L263.653 20.6776L267.108 26.1203L269.578 25.0964L269.158 21.2599L271.174 24.4348L289.525 16.8264C287.801 13.5903 284.691 11.0907 280.879 9.87773C277.067 8.66471 272.864 8.83756 269.196 10.3583L266.537 11.4609C262.869 12.9816 260.036 15.7256 258.661 19.0892C257.286 22.4528 257.482 26.1605 259.206 29.3967Z" fill="#2F2E41"/>
<path id="Vector_27" d="M355.014 72.4018C354.545 71.7288 353.925 71.1472 353.192 70.6925C352.46 70.2379 351.63 69.9196 350.753 69.7572C350.432 69.6976 350.106 69.6612 349.778 69.6483L304.999 34.3254C304.12 33.5278 302.947 33.0332 301.691 32.9305C301.443 32.9054 301.193 32.8985 300.944 32.9098C299.911 32.9512 298.914 33.2573 298.075 33.7907C297.236 34.3241 296.591 35.0617 296.219 35.9132C295.848 36.7648 295.766 37.6934 295.983 38.5855C296.2 39.4777 296.707 40.2947 297.441 40.9368L314.585 54.1232L342.737 75.7723C342.76 76.18 342.829 76.5847 342.942 76.9805C343.279 78.1269 344.003 79.1559 345.018 79.931C346.033 80.7061 347.291 81.1908 348.626 81.3206C349.843 81.4461 351.075 81.2663 352.181 80.8021C353.059 80.4401 353.837 79.9147 354.462 79.262C354.526 79.1946 354.585 79.1324 354.644 79.0598C355.466 78.1149 355.942 76.9714 356.008 75.7818C356.074 74.5922 355.727 73.4131 355.014 72.4018H355.014Z" fill="#FFB8B8"/>
<path id="Vector_28" d="M278.423 106.444L278.006 91.4789L277.653 79.0598L277.412 70.3691L276.936 53.4284C276.842 52.5214 276.45 51.6582 275.809 50.9442C275.169 50.2302 274.306 49.6962 273.327 49.4075C272.348 49.1189 271.294 49.0879 270.296 49.3185C269.297 49.5491 268.396 50.0313 267.703 50.7061C267.54 50.8603 267.392 51.0269 267.262 51.2039C266.539 52.1182 266.213 53.2321 266.345 54.341L267.391 79.0598L267.915 91.4789L268.584 107.32C268.391 107.553 268.217 107.797 268.062 108.051C267.644 108.751 267.391 109.518 267.319 110.306C267.248 111.094 267.358 111.886 267.644 112.635C267.943 113.421 268.427 114.142 269.064 114.75C269.701 115.359 270.477 115.842 271.341 116.167C272.205 116.491 273.138 116.651 274.076 116.635C275.015 116.619 275.94 116.427 276.789 116.073C277.775 115.662 278.631 115.042 279.282 114.27C279.932 113.497 280.357 112.595 280.518 111.643C280.68 110.691 280.573 109.719 280.208 108.812C279.842 107.906 279.229 107.092 278.423 106.444H278.423Z" fill="#FFB8B8"/>
<path id="Vector_29" d="M318.74 64.0533L314.585 54.1233L307.862 38.0381C307.377 36.8678 306.599 35.8089 305.587 34.9399C304.574 34.071 303.353 33.4143 302.014 33.0187C301.908 32.9876 301.797 32.9565 301.691 32.9305C300.393 32.5831 299.026 32.4875 297.683 32.6504C296.34 32.8133 295.052 33.2308 293.909 33.8742L271.264 46.5474C269.191 47.7053 267.708 49.5292 267.13 51.6337C266.552 53.7382 266.924 55.9585 268.167 57.8256C270.999 62.146 274.085 66.3328 277.412 70.3691C280.051 73.5374 282.648 70.3146 283.5 75.5H305.587H323.5L318.74 64.0533Z" fill="#CCCCCC"/>
</g>
<path id="Vector_30" d="M115.551 172.4H90.2794C88.7991 172.399 87.38 171.879 86.3333 170.956C85.2866 170.032 84.6978 168.78 84.6961 167.474V145.177C84.6978 143.871 85.2866 142.619 86.3333 141.695C87.38 140.772 88.7991 140.252 90.2794 140.251H115.551C117.031 140.252 118.451 140.772 119.497 141.695C120.544 142.619 121.133 143.871 121.135 145.177V167.474C121.133 168.78 120.544 170.032 119.497 170.956C118.451 171.879 117.031 172.399 115.551 172.4Z" fill="white"/>
<path id="Vector_31" d="M115.551 172.4H90.2794C88.7991 172.399 87.38 171.879 86.3333 170.956C85.2866 170.032 84.6978 168.78 84.6961 167.474V145.177C84.6978 143.871 85.2866 142.619 86.3333 141.695C87.38 140.772 88.7991 140.252 90.2794 140.251H115.551C117.031 140.252 118.451 140.772 119.497 141.695C120.544 142.619 121.133 143.871 121.135 145.177V167.474C121.133 168.78 120.544 170.032 119.497 170.956C118.451 171.879 117.031 172.399 115.551 172.4ZM90.2794 141.288C89.1107 141.289 87.9903 141.699 87.164 142.428C86.3376 143.157 85.8728 144.146 85.8715 145.177V167.474C85.8728 168.505 86.3376 169.494 87.164 170.223C87.9903 170.952 89.1107 171.362 90.2794 171.363H115.551C116.72 171.362 117.84 170.952 118.667 170.223C119.493 169.494 119.958 168.505 119.959 167.474V145.177C119.958 144.146 119.493 143.157 118.667 142.428C117.84 141.699 116.72 141.289 115.551 141.288H90.2794Z" fill="#3F3D56"/>
<path id="Vector_32" d="M111.143 163.326H94.6873C94.2198 163.325 93.7716 163.161 93.4411 162.87C93.1105 162.578 92.9246 162.183 92.9241 161.77V150.881C92.9246 150.469 93.1105 150.073 93.4411 149.781C93.7716 149.49 94.2198 149.326 94.6873 149.325H99.3198C99.6212 149.324 99.9177 149.392 100.181 149.522C100.444 149.651 100.665 149.839 100.822 150.065L102.114 151.918H111.143C111.611 151.919 112.059 152.083 112.39 152.374C112.72 152.666 112.906 153.061 112.907 153.474V161.77C112.906 162.183 112.72 162.578 112.39 162.87C112.059 163.161 111.611 163.325 111.143 163.326Z" fill="#4CB887"/>
<g id="man">
<path id="Vector_33" d="M404.873 333.716L397.667 333.716L394.24 309.195L404.874 309.196L404.873 333.716Z" fill="#FFB8B8"/>
<path id="Vector_34" d="M406.71 339.879L383.477 339.878V339.619C383.477 338.571 383.711 337.533 384.166 336.565C384.62 335.597 385.286 334.718 386.126 333.977C386.966 333.236 387.962 332.648 389.06 332.247C390.157 331.846 391.333 331.64 392.52 331.64H392.521L406.71 331.641L406.71 339.879Z" fill="#2F2E41"/>
<path id="Vector_35" d="M434.258 333.716L427.053 333.716L423.625 309.195L434.26 309.196L434.258 333.716Z" fill="#FFB8B8"/>
<path id="Vector_36" d="M436.096 339.879L412.863 339.878V339.619C412.863 338.571 413.097 337.533 413.551 336.565C414.006 335.597 414.672 334.718 415.512 333.977C416.351 333.236 417.348 332.648 418.445 332.247C419.543 331.846 420.718 331.64 421.906 331.64H421.907L436.096 331.641L436.096 339.879Z" fill="#2F2E41"/>
<path id="Vector_37" d="M432.098 323.086L425.425 321.295C424.928 321.162 424.486 320.903 424.155 320.549C423.824 320.196 423.619 319.764 423.565 319.308L417.343 267.285C417.338 267.222 417.307 267.163 417.254 267.12C417.202 267.077 417.133 267.053 417.062 267.053C416.99 267.047 416.919 267.065 416.863 267.105C416.807 267.145 416.771 267.202 416.762 267.265L406.341 317.667C406.278 317.972 406.146 318.264 405.953 318.524C405.76 318.784 405.511 319.008 405.218 319.182C404.926 319.356 404.598 319.476 404.252 319.537C403.907 319.597 403.551 319.596 403.206 319.533L394.677 317.983C394.052 317.868 393.494 317.557 393.108 317.108C392.721 316.659 392.531 316.102 392.572 315.54L398.911 232.93L441.895 228.838L435.508 320.996C435.467 321.588 435.171 322.145 434.682 322.552C434.192 322.959 433.545 323.187 432.872 323.188C432.61 323.188 432.349 323.154 432.098 323.086Z" fill="#2F2E41"/>
<path id="Vector_38" d="M432.058 160.99C440.03 160.99 446.492 155.288 446.492 148.254C446.492 141.22 440.03 135.518 432.058 135.518C424.085 135.518 417.623 141.22 417.623 148.254C417.623 155.288 424.085 160.99 432.058 160.99Z" fill="#FFB8B8"/>
<path id="Vector_39" d="M398.845 233.415L408.165 181.638C408.66 178.885 409.815 176.257 411.551 173.928C413.287 171.6 415.566 169.624 418.235 168.133C420.904 166.642 423.903 165.669 427.031 165.28C430.159 164.89 433.346 165.093 436.378 165.875C441.68 167.228 446.22 170.276 449.111 174.425C452.002 178.573 453.037 183.523 452.012 188.308L442.261 234.547L398.845 233.415Z" fill="#134D77"/>
<path id="Vector_40" d="M435.43 243.527C436.151 243.107 436.759 242.553 437.211 241.903C437.663 241.253 437.948 240.524 438.046 239.767C438.144 239.009 438.052 238.242 437.778 237.519C437.503 236.797 437.052 236.136 436.457 235.583L446.093 219.119L435.241 220.141L427.754 235.619C426.769 236.563 426.21 237.793 426.183 239.076C426.157 240.359 426.665 241.606 427.611 242.581C428.557 243.556 429.876 244.191 431.317 244.365C432.758 244.54 434.222 244.241 435.43 243.527V243.527Z" fill="#FFB8B8"/>
<path id="Vector_41" d="M438.106 231.831C437.573 231.765 437.075 231.556 436.68 231.234L432.993 228.228C432.595 227.902 432.32 227.476 432.205 227.007C432.09 226.538 432.141 226.05 432.351 225.608L439.72 210.198L438.675 179.749C438.825 178.77 439.192 177.827 439.756 176.974C440.319 176.12 441.068 175.373 441.959 174.775C442.85 174.177 443.866 173.74 444.949 173.489C446.031 173.237 447.16 173.177 448.269 173.31C449.378 173.444 450.447 173.769 451.413 174.267C452.38 174.765 453.226 175.426 453.903 176.213C454.58 176.999 455.075 177.896 455.359 178.852C455.642 179.807 455.71 180.802 455.558 181.781L457.345 200.921C457.889 206.731 456.022 212.516 452.092 217.202L440.601 230.908C440.38 231.172 440.099 231.391 439.775 231.552C439.452 231.713 439.093 231.813 438.723 231.844C438.518 231.861 438.311 231.857 438.106 231.831Z" fill="#134D77"/>
<path id="Vector_42" opacity="0.1" d="M443.766 192.415L443.178 209.008L432.351 225.607L441.392 207.11L443.766 192.415Z" fill="black"/>
<path id="Vector_43" d="M430.404 150.647C429.497 150.751 428.579 150.561 427.819 150.113C427.059 149.664 426.509 148.988 426.272 148.209C426.043 147.312 425.542 146.488 424.822 145.823C424.103 145.159 423.191 144.68 422.187 144.437C419.539 143.903 416.302 145.003 414.362 143.233C413.947 142.829 413.646 142.343 413.485 141.817C413.324 141.29 413.307 140.737 413.436 140.204C413.794 138.483 415.188 137.184 416.706 136.145C419.9 133.968 423.765 132.693 427.794 132.489C429.879 132.435 431.967 132.527 434.036 132.763C436.203 132.883 438.346 133.229 440.421 133.792C442.785 134.579 444.886 135.879 446.529 137.572C448.173 139.265 449.307 141.297 449.825 143.479C450.299 145.667 450.227 147.921 449.612 150.082C448.997 152.243 447.855 154.26 446.265 155.991C444.362 158.082 441.909 159.73 439.118 160.792C438.454 161.069 437.692 161.103 436.999 160.887C435.261 160.277 435.545 158.378 436.337 157.111C437.185 155.755 438.49 154.442 437.808 152.792C437.466 152.027 436.81 151.403 435.97 151.046C434.243 150.269 432.31 150.453 430.452 150.642L430.404 150.647Z" fill="#2F2E41"/>
<path id="Vector_44" d="M467.433 340.625H354.591C354.436 340.625 354.286 340.57 354.176 340.473C354.066 340.376 354.004 340.244 354.004 340.106C354.004 339.969 354.066 339.837 354.176 339.74C354.286 339.642 354.436 339.588 354.591 339.588H467.433C467.589 339.588 467.738 339.642 467.849 339.74C467.959 339.837 468.021 339.969 468.021 340.106C468.021 340.244 467.959 340.376 467.849 340.473C467.738 340.57 467.589 340.625 467.433 340.625Z" fill="#CCCCCC"/>
<path id="Vector_45" d="M348.931 141.315C349.088 142.064 349.43 142.774 349.932 143.395C350.434 144.015 351.084 144.531 351.836 144.906C352.589 145.281 353.425 145.505 354.286 145.564C355.148 145.623 356.013 145.515 356.822 145.246L370.249 159.495L373.414 150.279L360.178 138.162C359.577 136.993 358.511 136.059 357.182 135.537C355.853 135.015 354.354 134.942 352.967 135.331C351.581 135.719 350.404 136.543 349.661 137.646C348.917 138.749 348.657 140.054 348.931 141.315Z" fill="#FFB8B8"/>
<path id="Vector_46" d="M359.449 147.221C359.726 146.814 360.137 146.491 360.628 146.295L365.202 144.471C365.698 144.275 366.251 144.218 366.784 144.307C367.318 144.397 367.808 144.629 368.188 144.972L381.399 156.967L413.586 167.989C414.549 168.493 415.39 169.159 416.062 169.95C416.733 170.74 417.221 171.64 417.498 172.597C417.775 173.554 417.835 174.55 417.675 175.528C417.516 176.506 417.139 177.446 416.567 178.296C415.995 179.145 415.239 179.886 414.342 180.478C413.445 181.069 412.425 181.499 411.34 181.742C410.255 181.985 409.126 182.037 408.018 181.895C406.91 181.753 405.844 181.42 404.882 180.914L384.208 174.903C377.933 173.08 372.623 169.308 369.264 164.288L359.439 149.608C359.25 149.326 359.131 149.011 359.089 148.686C359.047 148.36 359.083 148.03 359.195 147.718C359.257 147.544 359.342 147.377 359.449 147.221Z" fill="#134D77"/>
</g>
</g>
</svg>
